<svg id="Layer_1" data-name="Layer 1" xmlns="http://www.w3.org/2000/svg" viewBox="0 0 300.33 300"><defs><style>.cls-1{fill:none;stroke:#000;stroke-miterlimit:10;}.cls-2{font-size:12px;font-family:Myriad Pro;}.cls-3{fill:lime;}.cls-3,.cls-4{opacity:0.2;}.cls-4{fill:red;}</style></defs><title>status-hierarchy-2</title><line class="cls-1" x1="0.33" y1="150" x2="286.21" y2="150"/><polygon points="300.33 150 280.44 158.13 285.16 150 280.44 141.87 300.33 150"/><line class="cls-1" x1="150.33" y1="14.12" x2="150.33" y2="300"/><polygon points="150.33 0 142.2 19.9 150.33 15.18 158.46 19.9 150.33 0"/><text class="cls-2" transform="translate(188.81 71.32)">ab<tspan x="12.61" y="0">o</tspan><tspan x="19.12" y="0">v</tspan><tspan x="24.77" y="0">e </tspan><tspan x="33.32" y="0">a</tspan><tspan x="39.01" y="0">v</tspan><tspan x="44.66" y="0">e</tspan><tspan x="50.68" y="0">r</tspan><tspan x="54.54" y="0">age</tspan><tspan x="0" y="14.4">in both games</tspan></text><text class="cls-2" transform="translate(38.81 71.32)">ab<tspan x="12.61" y="0">o</tspan><tspan x="19.12" y="0">v</tspan><tspan x="24.77" y="0">e </tspan><tspan x="33.32" y="0">a</tspan><tspan x="39.01" y="0">v</tspan><tspan x="44.66" y="0">e</tspan><tspan x="50.68" y="0">r</tspan><tspan x="54.54" y="0">age</tspan><tspan x="5.36" y="14.4">in one game</tspan></text><rect class="cls-3" x="150" width="150" height="150"/><rect class="cls-4" y="150" width="150" height="150"/><rect class="cls-3" x="150.33" y="150" width="150" height="150"/><rect class="cls-3" width="150" height="150"/><text class="cls-2" transform="translate(188.81 221.32)">ab<tspan x="12.61" y="0">o</tspan><tspan x="19.12" y="0">v</tspan><tspan x="24.77" y="0">e </tspan><tspan x="33.32" y="0">a</tspan><tspan x="39.01" y="0">v</tspan><tspan x="44.66" y="0">e</tspan><tspan x="50.68" y="0">r</tspan><tspan x="54.54" y="0">age</tspan><tspan x="5.36" y="14.4">in one game</tspan></text><text class="cls-2" transform="translate(38.7 221.32)">bel<tspan x="15.67" y="0">o</tspan><tspan x="22.18" y="0">w </tspan><tspan x="33.55" y="0">a</tspan><tspan x="39.24" y="0">v</tspan><tspan x="44.89" y="0">e</tspan><tspan x="50.9" y="0">r</tspan><tspan x="54.77" y="0">age</tspan><tspan x="0.7" y="14.4">in both games</tspan></text></svg>