<svg id="Layer_1" data-name="Layer 1" xmlns="http://www.w3.org/2000/svg" viewBox="0 0 300 300"><defs><style>.cls-1{fill:lime;}.cls-1,.cls-2{opacity:0.2;}.cls-2{fill:red;}.cls-3,.cls-4{fill:none;stroke:#000;stroke-miterlimit:10;}.cls-4{stroke-dasharray:11.52 11.52;}.cls-5{font-size:12px;font-family:Myriad Pro;}</style></defs><title>status-hierarchy-1</title><rect class="cls-1" x="150" width="150" height="300"/><rect class="cls-2" width="150" height="300"/><line class="cls-3" y1="150" x2="285.88" y2="150"/><polygon points="300 150 280.1 158.13 284.82 150 280.1 141.87 300 150"/><line class="cls-3" x1="150" x2="150" y2="6"/><line class="cls-4" x1="150" y1="17.52" x2="150" y2="288.24"/><line class="cls-3" x1="150" y1="294" x2="150" y2="300"/><text class="cls-5" transform="translate(188.48 143.52)">ab<tspan x="12.61" y="0">o</tspan><tspan x="19.12" y="0">v</tspan><tspan x="24.77" y="0">e </tspan><tspan x="33.32" y="0">a</tspan><tspan x="39.01" y="0">v</tspan><tspan x="44.66" y="0">e</tspan><tspan x="50.68" y="0">r</tspan><tspan x="54.54" y="0">age</tspan></text><text class="cls-5" transform="translate(38.36 143.52)">bel<tspan x="15.67" y="0">o</tspan><tspan x="22.18" y="0">w </tspan><tspan x="33.55" y="0">a</tspan><tspan x="39.24" y="0">v</tspan><tspan x="44.89" y="0">e</tspan><tspan x="50.9" y="0">r</tspan><tspan x="54.77" y="0">age</tspan></text></svg>